<svg width="234" height="42" viewBox="0 0 234 42" fill="none" xmlns="http://www.w3.org/2000/svg">
  <g id="NEO">
    <path d="M18 36H6V18H18V36Z" fill="#4B4646"/>
    <path d="M18 12H6V36H0V6H18V12ZM24 36H18V12H24V36Z" fill="#B7B1B1"/>
    <path d="M54 24V30H36V24H54Z" fill="#4B4646"/>
    <path d="M54 24H36V30H54V36H30V6H54V24ZM36 18H48V12H36V18Z" fill="#B7B1B1"/>
    <path d="M78 30H66V18H78V30Z" fill="#4B4646"/>
    <path d="M78 12H66V30H78V12ZM84 36H60V6H84V36Z" fill="#B7B1B1"/>
  </g>
  <g id="CODE">
    <path d="M144 30H126V18H144V30Z" fill="#4B4646"/>
    <path d="M144 12H126V30H144V36H120V6H144V12Z" fill="#F1ECEC"/>
    <path d="M168 30H156V18H168V30Z" fill="#4B4646"/>
    <path d="M168 12H156V30H168V12ZM174 36H150V6H174V36Z" fill="#F1ECEC"/>
    <path d="M198 30H186V18H198V30Z" fill="#4B4646"/>
    <path d="M198 12H186V30H198V12ZM204 36H180V6H198V0H204V36Z" fill="#F1ECEC"/>
    <path d="M234 24V30H216V24H234Z" fill="#4B4646"/>
    <path d="M234 24H216V30H234V36H210V6H234V24ZM216 18H228V12H216V18Z" fill="#F1ECEC"/>
  </g>
</svg>
